<svg
  xmlns="http://www.w3.org/2000/svg"
  xmlns:xlink="http://www.w3.org/1999/xlink"
  width="667"
  height="187"
>
  <defs><path id="a" d="M0 0h241.439v130.036H0z" /><path id="c" d="M0 0h3.814v6.946H0z" /><path
      id="e"
      d="M0 0h9.113v21.397H0z"
    /><path id="g" d="M0 0h15.041v35.463H0z" /><path id="i" d="M0 0h20.075v49.345H0z" /><path
      id="k"
      d="M0 0h23.175v62.801H0z"
    /><path id="m" d="M0 0h24.983v75.969H0z" /><path id="o" d="M0 0h26.449v88.939H0z" /><path
      id="q"
      d="M0 0h25.698v101.026H0z"
    /><path id="s" d="M0 0h23.144v112.433H0z" /><path id="u" d="M0 0h19.364v122.019H0z" /><path
      id="w"
      d="M0 0h17.653v130.078H0z"
    /><path id="y" d="M0 0h3.81v5.947H0z" /><path id="A" d="M0 0h9.117v18.209H0z" /><path
      id="C"
      d="M0 0h15.041v31.008H0z"
    /><path id="E" d="M0 0h20.07v43.835H0z" /><path id="G" d="M0 0h23.172v56.705H0z" /><path
      id="I"
      d="M0 0h24.971v69.792H0z"
    /><path id="K" d="M0 0h26.447v82.937H0z" /><path id="M" d="M0 0h25.747v95.516H0z" /><path
      id="O"
      d="M0 0h22.902v108.111H0z"
    /><path id="Q" d="M0 0h18.629v118.5H0z" /><path id="S" d="M0 0h16.17v127.207H0z" /><path
      id="U"
      d="M0 0h475.349v93.671H0z"
    /><path id="W" d="M0 0h16.655v21.662H0z" /><path id="Y" d="M0 0h22.388v29.941H0z" /><path
      id="aa"
      d="M0 0h27.514v39.793H0z"
    /><path id="ac" d="M0 0h31.082v49.231H0z" /><path id="ae" d="M0 0h32.638v58.324H0z" /><path
      id="ag"
      d="M0 0h33.182v66.366H0z"
    /><path id="ai" d="M0 0h32.235v73.837H0z" /><path id="ak" d="M0 0h29.722v80.669H0z" /><path
      id="am"
      d="M0 0h27.066v86.507H0z"
    /><path id="ao" d="M0 0h22.949v91.357H0z" /><path id="aq" d="M0 0h18.794v95.386H0z" /><path
      id="as"
      d="M0 0h15.651v98.804H0z"
    /><path id="au" d="M0 0h10.546v100.921H0z" /><path id="aw" d="M0 0h6.873v102.101H0z" /><path
      id="ay"
      d="M0 0h7.292v101.723H0z"
    /><path id="aA" d="M0 0h9.971v101.029H0z" /><path id="aC" d="M0 0h14.175v99.732H0z" /><path
      id="aE"
      d="M0 0h19.942v97.28H0z"
    /><path id="aG" d="M0 0h24.663v94.085H0z" /><path id="aI" d="M0 0h28.481v90.083H0z" /><path
      id="aK"
      d="M0 0h31.836v85.727H0z"
    /><path id="aM" d="M0 0h34.288v80.02H0z" /><path id="aO" d="M0 0h35.277v73.47H0z" /><path
      id="aQ"
      d="M0 0h35.649v66.329H0z"
    /><path id="aS" d="M0 0h34.429v58.615H0z" /><path id="aU" d="M0 0h31.457v49.955H0z" /><path
      id="aW"
      d="M0 0h27.456v40.474H0z"
    /><path id="aY" d="M0 0h21.224v31.063H0z" /><path id="ba" d="M0 0h15.564v20.666H0z" /></defs><g
    fill="none"
    fill-rule="evenodd"
  ><path
      fill="#581C87"
      d="M257.65 161.02c4.192-17.835 4.257-36.137 3.445-44.856-.811-8.71-2.53-14.381-11.651-22.082 0 0 2.848-2.161 15.199-2.161 12.36 0 15.198 2.16 15.198 2.16-9.113 7.702-10.839 13.374-11.651 22.083-.812 8.72-.739 27.021 3.444 44.856"
    /><path
      fill="#A855F7"
      d="M261.337 101.11c-1.941-5.941-4.322-11.192-7.253-16.042l.628-6.054-1-.097-.56 5.517-2.849-1.392-2.548-3.99-.839.536 2.697 4.233 3.603 1.751c2.903 4.785 5.246 9.97 7.18 15.843 2.502 7.664 1.866 20.63 1.857 20.756l1.008.06c.027-.541.635-13.288-1.924-21.12"
    /><path
      fill="#A855F7"
      d="M262.758 86.585l1.708-7.794-.971-.21-1.606 7.327-2.24-.817-1.205-6.32-.971.192 1.297 6.857 3.044 1.115a77.91 77.91 0 01.691 4.271l-6.703-3.809-.485.864 7.356 4.178c.512 3.972.904 8.523.904 11.968V135.1h1v-30.693c0-5.368-.944-13.393-1.82-17.822"
    /><path
      fill="#A855F7"
      d="M272.203 86.544l1.822-7.51-.972-.23-1.456 5.957-3.267-6.264-.878.467 3.613 6.922-4.387 1.516-.98-1.213 1.306-7.436-.99-.172-1.148 6.576-1.55-1.917-.783.625 3.453 4.28c-.662 5.06-.597 10.119-.559 13.158.018.574.018 1.06.018 1.443h1.008c0-.392-.01-.883-.018-1.457-.048-2.992-.112-7.968.533-12.92l5.235-1.825m-14.721 13.913c-.027-.051-2.427-5.194-9.764-12.551l-4.883-1.998-2.427-5.731.916-.397 2.258 5.367 4.76 1.985c7.544 7.543 9.953 12.7 10.038 12.915l-.898.41"
    /><path
      fill="#A855F7"
      d="M277.721 78.809c-1.372 1.957-3.865 6.759-5.349 9.63l-.233.438c-.243.486-.477.962-.709 1.437l-1.634-3.345-.897.433 1.98 4.062a79 79 0 00-3.305 8.443l-1.513-4.182-2.447-2.61-.717.687 2.268 2.366 1.932 5.303.029 7.057.99-.005-.03-6.875.02-.042c.01-.065 1.7-6.068 4.92-12.27l.232-.445c1.467-2.838 3.942-7.607 5.276-9.517l-.813-.565"
    /><path
      fill="#A855F7"
      d="M295.365 80.62l-2.699.971.02-1.073-1.008-.005v1.433l-.635.22.019.018c-.253.098-.747.383-1.84 1.167l1.475-2.918-.876-.452-2.381 4.695c-1.204.92-2.792 2.166-4.893 3.837-4.854 3.856-8.71 8.663-11.304 12.392 1.783-3.43 4.509-7.87 8.41-12.275 4.566-5.176 8.487-8.276 8.542-8.313l-.624-.78c-.038.028-2.13 1.681-5.024 4.56l.225-4.742-1-.05-.27 5.843c-.812.855-1.708 1.787-2.605 2.819-.364.406-.719.812-1.055 1.218l-.027-1.7-1.13-1.19 4.686-4.456-.681-.724-4.164 3.954.159-2.717-.999-.065-.233 4.168 1.372 1.438.055 2.492c-6.73 8.472-9.306 16.411-9.334 16.5-1.214 3.314-1.942 11.314-1.942 21.429 0 8.112.159 13.331 1.046 21.033l.99-.108c-.888-7.664-1.046-12.85-1.046-20.925 0-9.853.728-17.918 1.895-21.075.307-.587 5.825-10.898 14.684-17.942 6.629-5.288 7.953-6.062 8.169-6.175l4.359-1.554-.336-.948"
    /><path
      fill="#A855F7"
      d="M271.093 161.221c-4.322-18.4-4.2-36.95-3.453-45.01.84-9.145 2.819-14.83 11.816-22.419 6.63-5.6 14.21-10.348 18.132-12.677l.513.863c-3.904 2.31-11.417 7.02-18 12.575-8.784 7.412-10.632 12.7-11.481 21.751-.728 8-.859 26.405 3.435 44.692l-.961.225m-13.013 0l-.98-.225c4.292-18.29 4.19-36.696 3.434-44.692-.831-9.05-2.688-14.339-11.464-21.75-6.553-5.527-14.067-10.242-17.96-12.566l.494-.854c3.929 2.328 11.502 7.08 18.101 12.658 8.99 7.59 10.98 13.274 11.82 22.42.764 8.054.877 26.6-3.445 45.01"
    /><path
      fill="#A855F7"
      d="M264.848 94.087c5.321 0 12.295.788 14.348 2.184 2.054 1.4-.812 2.017-.812 2.017s2.97-.495 1.241-2.097c-1.745-1.586-7.767-3.06-14.777-3.06h-.411c-7.01 0-13.014 1.474-14.759 3.06-1.736 1.602 1.232 2.097 1.232 2.097s-2.866-.616-.822-2.017c2.064-1.396 9.038-2.184 14.358-2.184h.402m-.336 13.166c-2.717 0-5.033.683-5.722 1.564-.692.896.363 1.26.363 1.26s-.168-.149-.325-.345c-.132-.154-.113-.429.306-.69 1-.607 2.68-.916 5.378-.916h.204c2.7 0 4.36.309 5.369.915.43.262.447.537.318.69-.168.197-.338.346-.338.346s1.065-.364.365-1.26c-.681-.881-2.987-1.564-5.714-1.564h-.204m.233 45.156c2.809 0 5.21-.69 5.928-1.574.71-.88-.393-1.245-.393-1.245s.179.144.346.345c.122.144.122.424-.317.686-1.045.602-2.772.9-5.564.9h-.233c-2.79 0-4.519-.298-5.564-.9-.439-.262-.449-.542-.318-.686.16-.201.335-.345.335-.345s-1.1.364-.371 1.245c.7.883 3.107 1.574 5.918 1.574h.233"
    /><path
      fill="#A855F7"
      d="M264.828 155.592c1.317 0 4.594-.318 6.173-1.522 1.577-1.194-.262-1.802-.262-1.802s.756.608.401 1.017c-.31.365-2.68 1.294-6.292 1.294h-.392c-3.613 0-5.974-.93-6.284-1.294-.371-.41.392-1.017.392-1.017s-1.83.608-.26 1.802c1.586 1.204 4.864 1.522 6.18 1.522h.344"
    /><path
      fill="#A855F7"
      d="M264.324 157.991c-3.956 0-6.337-.7-6.87-1.32-.532-.626 1.028-1.476 1.028-1.476s-2.325.518-1.448 1.839c.868 1.33 3.911 2.208 7.31 2.208h.653c3.408 0 6.451-.878 7.31-2.208.876-1.321-1.447-1.84-1.447-1.84s1.55.851 1.028 1.476c-.534.621-2.915 1.321-6.873 1.321h-.69"
    /><path
      fill="#581C87"
      d="M317.918 149.342c4.193-17.826 4.257-36.132 3.447-44.842-.804-8.714-2.53-14.396-11.642-22.087 0 0 2.837-2.17 15.198-2.17 12.35 0 15.188 2.17 15.188 2.17-9.12 7.691-10.839 13.373-11.641 22.087-.822 8.71-.756 27.016 3.435 44.842"
    /><path
      fill="#A855F7"
      d="M321.607 89.437c-1.942-5.937-4.313-11.193-7.255-16.037l.618-6.054-.99-.109-.56 5.519-2.857-1.383-2.53-3.99-.84.532 2.688 4.238 3.612 1.746c2.894 4.783 5.248 9.97 7.171 15.85 2.51 7.655 1.875 20.622 1.866 20.754l.999.055c.03-.532.654-13.283-1.922-21.12"
    /><path
      fill="#A855F7"
      d="M323.025 74.902l1.71-7.78-.972-.216-1.606 7.338-2.24-.826-1.204-6.315-.97.182 1.306 6.865 3.043 1.12a99.47 99.47 0 01.69 4.258l-6.702-3.81-.486.87 7.347 4.177c.514 3.971.905 8.527.905 11.968v30.698h.99V92.733c0-5.368-.934-13.392-1.811-17.831"
    /><path
      fill="#A855F7"
      d="M332.463 74.874l1.82-7.515-.951-.229-1.456 5.961-3.278-6.263-.886.457 3.622 6.93-4.397 1.513-.97-1.213 1.307-7.436-.99-.173-1.148 6.582-1.55-1.924-.776.63 3.444 4.272c-.652 5.064-.596 10.124-.54 13.163 0 .573.01 1.054.01 1.451h.988c0-.397 0-.886-.008-1.465-.037-2.988-.103-7.963.53-12.925l5.228-1.816m-14.719 13.914c-.029-.055-2.42-5.195-9.748-12.55l-4.9-1.994-2.418-5.745.914-.388 2.26 5.358 4.77 1.988c7.544 7.54 9.933 12.697 10.036 12.916l-.914.415"
    /><path
      fill="#A855F7"
      d="M337.981 67.135c-1.365 1.95-3.855 6.76-5.34 9.634l-.225.434c-.252.481-.484.966-.717 1.442l-1.644-3.35-.886.433 1.988 4.065a72.271 72.271 0 00-3.296 8.44l-1.513-4.183-2.445-2.603-.729.69 2.26 2.353 1.922 5.306.038 7.058.989-.005-.027-6.876.01-.041c.017-.066 1.727-6.068 4.927-12.267l.235-.443c1.476-2.847 3.958-7.618 5.273-9.518l-.82-.57"
    /><path
      fill="#A855F7"
      d="M355.633 68.951l-2.688.961v-1.065l-1-.008v1.433l-.625.224v.019c-.252.088-.737.378-1.83 1.161l1.485-2.912-.896-.448-2.37 4.69c-1.205.92-2.793 2.153-4.893 3.833-4.845 3.856-8.71 8.668-11.296 12.397 1.774-3.43 4.5-7.87 8.392-12.285 4.576-5.166 8.497-8.27 8.533-8.304l-.616-.78c-.017.024-2.11 1.671-5.013 4.556l.224-4.737-.988-.057-.282 5.84h.01c-.831.863-1.7 1.802-2.604 2.819-.375.42-.72.822-1.064 1.228l-.028-1.704-1.13-1.19 4.685-4.463-.69-.718-4.145 3.95.15-2.722-.99-.047-.252 4.163 1.372 1.433.058 2.493c-6.714 8.472-9.3 16.42-9.319 16.504-1.222 3.315-1.95 11.31-1.95 21.42 0 8.122.158 13.333 1.046 21.047l.99-.117c-.879-7.66-1.046-12.855-1.046-20.93 0-9.843.736-17.915 1.895-21.073.3-.583 5.824-10.89 14.674-17.939 6.647-5.293 7.963-6.067 8.178-6.174l4.35-1.56-.327-.938"
    /><path
      fill="#A855F7"
      d="M331.353 149.556c-4.313-18.414-4.201-36.962-3.445-45.015.85-9.143 2.829-14.833 11.827-22.422 6.629-5.602 14.19-10.344 18.12-12.669l.514.85c-3.911 2.315-11.427 7.03-18.01 12.583-8.773 7.409-10.621 12.697-11.47 21.752-.738 7.996-.86 26.41 3.444 44.688l-.98.233m-13.004 0l-.971-.233c4.294-18.288 4.182-36.697 3.425-44.688-.84-9.055-2.697-14.343-11.472-21.752-6.545-5.53-14.059-10.244-17.954-12.56l.506-.853c3.92 2.323 11.492 7.076 18.091 12.649 8.981 7.589 10.978 13.279 11.838 22.422.738 8.053.85 26.597-3.463 45.015"
    /><path
      fill="#A855F7"
      d="M325.136 82.413c5.302 0 12.283.788 14.328 2.189 2.055 1.395-.803 2.012-.803 2.012s2.961-.491 1.225-2.087c-1.746-1.596-7.759-3.067-14.75-3.067h-.422c-7.01 0-13.03 1.47-14.767 3.067-1.736 1.596 1.241 2.087 1.241 2.087s-2.865-.617-.821-2.012c2.053-1.4 9.036-2.19 14.356-2.19h.413m-.366 13.168c-2.706 0-5.021.681-5.713 1.574-.69.886.375 1.245.375 1.245s-.169-.144-.327-.336c-.13-.158-.12-.434.297-.695 1.01-.606 2.68-.91 5.368-.91h.217c2.697 0 4.358.304 5.359.91.437.26.446.537.315.695-.15.192-.315.336-.315.336s1.053-.36.362-1.245c-.7-.893-2.996-1.574-5.72-1.574h-.218m.243 45.155c2.81 0 5.21-.696 5.938-1.573.7-.888-.382-1.246-.382-1.246s.169.149.335.34c.122.15.112.424-.327.691-1.045.602-2.781.905-5.563.905h-.233c-2.783 0-4.528-.303-5.564-.905-.43-.267-.448-.542-.318-.69.158-.192.328-.341.328-.341s-1.092.358-.375 1.246c.728.877 3.118 1.573 5.93 1.573h.232"
    /><path
      fill="#A855F7"
      d="M325.089 143.918c1.325 0 4.592-.317 6.178-1.516 1.58-1.2-.26-1.807-.26-1.807s.765.606.402 1.022c-.309.364-2.68 1.293-6.302 1.293h-.373c-3.622 0-5.975-.929-6.292-1.293-.382-.416.401-1.022.401-1.022s-1.848.606-.271 1.807c1.597 1.2 4.854 1.516 6.172 1.516h.345"
    /><path
      fill="#A855F7"
      d="M324.584 146.327c-3.948 0-6.329-.705-6.87-1.33-.533-.627 1.027-1.471 1.027-1.471s-2.325.513-1.438 1.839c.858 1.32 3.902 2.203 7.309 2.203h.654c3.408 0 6.45-.882 7.319-2.203.877-1.326-1.446-1.839-1.446-1.839s1.559.844 1.025 1.47c-.551.626-2.922 1.331-6.88 1.331h-.7"
    /><path
      fill="#581C87"
      d="M210.843 162.266c6.03-25.653 6.115-51.974 4.967-64.502-1.176-12.532-3.65-20.69-16.766-31.768 0 0 4.07-3.123 21.853-3.123 17.774 0 21.854 3.123 21.854 3.123-13.117 11.077-15.59 19.236-16.766 31.768-1.147 12.528-1.065 38.849 4.967 64.502"
    /><path
      fill="#A855F7"
      d="M216.146 76.096c-2.802-8.545-6.21-16.093-10.437-23.062l.886-8.71-1.428-.144-.811 7.93-4.09-1.993-3.649-5.75-1.213.783 3.882 6.087 5.18 2.521c4.174 6.875 7.553 14.334 10.316 22.787 3.604 11.007 2.688 29.662 2.688 29.85l1.43.08c.047-.78.943-19.115-2.754-30.379"
    /><path
      fill="#A855F7"
      d="M218.191 55.204l2.446-11.202-1.4-.308-2.298 10.544-3.22-1.18-1.727-9.078-1.4.26 1.858 9.886 4.377 1.6c.337 1.737.69 3.843.998 6.12l-9.634-5.475-.708 1.247 10.585 6.016c.729 5.71 1.297 12.253 1.297 17.202v44.154h1.43V80.836c0-7.717-1.344-19.25-2.604-25.632"
    /><path
      fill="#A855F7"
      d="M231.763 55.16l2.623-10.812-1.39-.34-2.082 8.579-4.714-9.004-1.28.658 5.21 9.96-6.32 2.195-1.42-1.756 1.897-10.703-1.411-.248-1.671 9.467-2.22-2.759-1.113.906 4.948 6.143c-.942 7.281-.84 14.563-.784 18.932.02.822.029 1.526.029 2.082h1.429a89.5 89.5 0 00-.03-2.096c-.056-4.313-.131-11.464.766-18.596l7.533-2.609M210.592 75.16c-.037-.066-3.484-7.459-14.04-18.055l-7.04-2.867-3.482-8.256 1.326-.551 3.258 7.706 6.851 2.862c10.839 10.847 14.293 18.26 14.433 18.567l-1.306.593"
    /><path
      fill="#A855F7"
      d="M239.698 44.026c-1.97 2.805-5.544 9.709-7.682 13.844l-.337.635c-.354.695-.7 1.381-1.036 2.063l-2.343-4.817-1.289.63 2.857 5.845a110.9 110.9 0 00-4.742 12.14l-2.185-6.017-3.51-3.739-1.036.985 3.25 3.384 2.772 7.63.037 10.153h1.447l-.046-9.895.017-.065c.02-.074 2.466-8.719 7.086-17.639l.326-.634c2.122-4.094 5.687-10.956 7.582-13.682l-1.168-.82"
    /><path
      fill="#A855F7"
      d="M265.063 46.64l-3.846 1.376v-1.545h-1.43l-.016 2.063-.898.323.01.023c-.354.135-1.065.546-2.632 1.675l2.129-4.196-1.28-.644-3.427 6.76a375.856 375.856 0 00-7.029 5.511c-6.965 5.541-12.527 12.477-16.252 17.826 2.566-4.938 6.47-11.324 12.079-17.666 6.583-7.436 12.22-11.903 12.267-11.95l-.878-1.124c-.037.041-3.043 2.413-7.207 6.553l.308-6.82-1.427-.066-.383 8.402h.008a122.075 122.075 0 00-3.77 4.047c-.505.593-1.01 1.18-1.504 1.764l-.056-2.45-1.624-1.703 6.75-6.428-.99-1.032-5.965 5.68.205-3.91-1.419-.08-.345 5.999 1.96 2.063.093 3.58c-9.671 12.192-13.377 23.617-13.414 23.744-1.747 4.746-2.792 16.267-2.792 30.806 0 11.67.216 19.175 1.505 30.265l1.417-.173c-1.268-11.01-1.493-18.479-1.493-30.092 0-14.157 1.036-25.766 2.697-30.31.448-.837 8.394-15.67 21.117-25.813 9.54-7.6 11.446-8.71 11.762-8.86l6.255-2.254-.485-1.345"
    /><path
      fill="#A855F7"
      d="M230.158 162.546c-6.217-26.46-6.04-53.131-4.957-64.73 1.212-13.144 4.07-21.322 17-32.249 9.54-8.048 20.435-14.871 26.073-18.223l.728 1.238c-5.601 3.323-16.421 10.1-25.877 18.086-12.621 10.661-15.282 18.265-16.505 31.288-1.064 11.505-1.242 37.975 4.939 64.268l-1.4.322m-18.718 0l-1.4-.322c6.19-26.297 6.021-52.767 4.947-64.268-1.203-13.023-3.873-20.627-16.495-31.288-9.428-7.954-20.23-14.731-25.84-18.064l.728-1.231c5.648 3.36 16.533 10.18 26.026 18.194 12.94 10.927 15.786 19.105 17.019 32.248 1.074 11.586 1.25 38.26-4.985 64.73"
    /><path
      fill="#A855F7"
      d="M221.205 66.001c7.627 0 17.673 1.13 20.63 3.146 2.941 2.007-1.175 2.894-1.175 2.894s4.276-.713 1.764-3.006c-2.492-2.292-11.147-4.41-21.219-4.41h-.607c-10.082 0-18.717 2.118-21.227 4.41-2.504 2.293 1.772 3.006 1.772 3.006s-4.116-.887-1.166-2.894c2.95-2.016 12.976-3.146 20.64-3.146h.588m-.514 18.922c-3.892 0-7.215.99-8.213 2.27-.991 1.279.522 1.797.522 1.797s-.234-.211-.458-.482c-.187-.228-.177-.63.438-1.004 1.438-.873 3.848-1.316 7.711-1.316h.32c3.863 0 6.272.443 7.71 1.316.615.374.644.776.447 1.004-.224.27-.467.482-.467.482s1.522-.518.533-1.798c-1.01-1.279-4.323-2.269-8.223-2.269h-.32m.338 64.951c4.05 0 7.505-.994 8.531-2.254 1.036-1.28-.54-1.798-.54-1.798s.25.206.484.496c.178.219.178.616-.457.985-1.503.872-3.995 1.302-8.018 1.302h-.328c-4.015 0-6.507-.43-7.99-1.302-.645-.37-.663-.766-.477-.985.243-.29.495-.496.495-.496s-1.578.518-.551 1.798c1.035 1.26 4.49 2.254 8.523 2.254h.328"
    /><path
      fill="#A855F7"
      d="M221.159 154.467c1.895 0 6.61-.462 8.867-2.199 2.287-1.717-.371-2.6-.371-2.6s1.118.883.577 1.484c-.449.515-3.844 1.85-9.054 1.85h-.54c-5.21 0-8.599-1.335-9.067-1.85-.522-.601.588-1.484.588-1.484s-2.65.883-.372 2.6c2.278 1.737 6.972 2.199 8.867 2.199h.505"
    /><path
      fill="#A855F7"
      d="M220.44 157.912c-5.694 0-9.12-1.013-9.886-1.895-.765-.905 1.465-2.133 1.465-2.133s-3.323.751-2.082 2.656c1.27 1.904 5.63 3.174 10.521 3.174h.943c4.902 0 9.27-1.27 10.53-3.174 1.233-1.905-2.091-2.656-2.091-2.656s2.242 1.228 1.476 2.133c-.776.882-4.183 1.895-9.886 1.895h-.99"
    /><path
      fill="#581C87"
      d="M348.818 162.243c6.377-27.133 6.478-54.99 5.247-68.246-1.232-13.255-3.846-21.886-17.728-33.602 0 0 4.323-3.295 23.115-3.295 18.82 0 23.133 3.295 23.133 3.295-13.863 11.716-16.496 20.347-17.718 33.602-1.243 13.256-1.139 41.113 5.237 68.246"
    /><path
      fill="#A855F7"
      d="M354.439 71.084c-2.97-9.046-6.58-17.033-11.044-24.403l.944-9.218-1.513-.15-.86 8.388-4.33-2.105-3.875-6.077-1.27.822 4.099 6.432 5.49 2.664c4.414 7.278 7.98 15.175 10.912 24.119 3.809 11.645 2.847 31.38 2.838 31.586l1.52.078c.04-.825.99-20.224-2.911-32.136"
    /><path
      fill="#A855F7"
      d="M356.595 48.979l2.595-11.851-1.493-.323-2.428 11.142-3.408-1.242-1.83-9.606-1.493.275 2 10.457 4.62 1.693c.354 1.844.718 4.065 1.064 6.475l-10.194-5.793-.747 1.32 11.193 6.368c.755 6.04 1.363 12.961 1.363 18.203v46.71h1.512v-46.71c0-8.164-1.419-20.38-2.754-27.118"
    /><path
      fill="#A855F7"
      d="M370.953 48.926l2.773-11.435-1.466-.358-2.203 9.068-4.986-9.526-1.335.7 5.5 10.544-6.685 2.315-1.495-1.863 1.98-11.313-1.484-.258-1.755 10.012-2.363-2.921-1.166.953 5.228 6.5c-.998 7.708-.886 15.404-.841 20.03.029.869.038 1.614.038 2.207h1.522c0-.596-.028-1.348-.038-2.221-.056-4.56-.149-12.126.811-19.674l7.965-2.76M348.558 70.09c-.037-.07-3.689-7.898-14.843-19.1l-7.46-3.043-3.678-8.73 1.4-.583 3.436 8.15 7.254 3.03c11.463 11.478 15.113 19.32 15.262 19.641l-1.371.635"
    /><path
      fill="#A855F7"
      d="M379.345 37.146c-2.082 2.969-5.853 10.287-8.122 14.647l-.345.677a64.256 64.256 0 00-1.092 2.18l-2.493-5.092-1.363.662 3.025 6.185a116.27 116.27 0 00-5.022 12.84l-2.325-6.362-3.696-3.958-1.093 1.041 3.426 3.594 2.94 8.065.047 10.745 1.513-.008-.046-10.47.017-.065c.029-.094 2.615-9.224 7.497-18.662l.355-.668c2.25-4.34 6.002-11.598 8.02-14.474l-1.243-.877"
    /><path
      fill="#A855F7"
      d="M406.193 39.909l-4.088 1.47.01-1.638h-1.504v2.18l-.962.345v.019c-.373.14-1.13.583-2.782 1.764l2.25-4.425-1.363-.69-3.613 7.15c-1.818 1.387-4.228 3.282-7.45 5.839-7.365 5.859-13.245 13.186-17.176 18.848 2.698-5.214 6.843-11.977 12.761-18.679 6.974-7.875 12.939-12.59 13.004-12.64l-.943-1.195c-.037.037-3.22 2.553-7.627 6.935l.338-7.22-1.523-.07-.4 8.892a119.07 119.07 0 00-3.968 4.28c-.561.635-1.083 1.251-1.615 1.877l-.047-2.6-1.71-1.807 7.133-6.796-1.046-1.097-6.32 6.022.234-4.14-1.521-.085-.355 6.339 2.082 2.184.075 3.79c-10.223 12.887-14.144 24.977-14.18 25.117-1.85 5.032-2.96 17.21-2.96 32.603 0 12.337.233 20.277 1.595 32.016l1.494-.177c-1.343-11.655-1.577-19.558-1.577-31.839 0-14.992 1.092-27.268 2.875-32.08.467-.883 8.869-16.58 22.32-27.301 10.11-8.047 12.119-9.22 12.445-9.378l6.628-2.38-.513-1.433"
    /><path
      fill="#A855F7"
      d="M369.253 162.546c-6.562-28-6.384-56.217-5.246-68.479 1.289-13.914 4.314-22.573 18-34.12 10.091-8.528 21.618-15.74 27.585-19.287l.765 1.303c-5.93 3.515-17.363 10.693-27.39 19.142-13.34 11.281-16.17 19.328-17.447 33.103-1.13 12.173-1.317 40.179 5.208 67.997l-1.474.34m-19.791.001l-1.465-.341c6.534-27.828 6.348-55.824 5.217-67.997-1.278-13.775-4.106-21.822-17.466-33.103-9.96-8.412-21.397-15.59-27.334-19.115l.785-1.301c5.965 3.551 17.485 10.773 27.53 19.258 13.676 11.547 16.701 20.206 17.998 34.12 1.149 12.257 1.326 40.473-5.265 68.479"
    /><path
      fill="#A855F7"
      d="M359.779 60.395c8.085 0 18.717 1.2 21.826 3.33 3.136 2.128-1.243 3.065-1.243 3.065s4.529-.755 1.876-3.174c-2.64-2.426-11.798-4.668-22.44-4.668h-.654c-10.653 0-19.81 2.242-22.453 4.668-2.65 2.419 1.877 3.174 1.877 3.174s-4.37-.937-1.242-3.066c3.12-2.13 13.734-3.329 21.836-3.329h.617m-.532 20.025c-4.127 0-7.646 1.045-8.692 2.404-1.054 1.358.551 1.895.551 1.895s-.252-.216-.495-.518c-.196-.229-.178-.654.476-1.05 1.513-.92 4.07-1.392 8.16-1.392h.326c4.098 0 6.637.472 8.16 1.391.653.397.68.822.476 1.05-.234.303-.486.519-.486.519s1.605-.537.55-1.895c-1.045-1.36-4.564-2.405-8.7-2.405h-.326m.363 68.713c4.287 0 7.925-1.045 9.017-2.38 1.094-1.35-.568-1.9-.568-1.9s.261.228.513.522c.196.23.178.65-.485 1.046-1.588.925-4.238 1.377-8.477 1.377h-.355c-4.246 0-6.878-.452-8.466-1.377-.663-.396-.69-.817-.485-1.046.25-.294.512-.522.512-.522s-1.67.55-.569 1.9c1.094 1.335 4.733 2.38 9.008 2.38h.355"
    /><path
      fill="#A855F7"
      d="M359.733 153.99c2.006 0 6.981-.48 9.39-2.32 2.398-1.815-.392-2.739-.392-2.739s1.176.924.616 1.554c-.476.555-4.088 1.96-9.589 1.96h-.568c-5.507 0-9.103-1.405-9.587-1.96-.56-.63.616-1.554.616-1.554s-2.8.924-.392 2.74c2.388 1.84 7.375 2.32 9.4 2.32h.505"
    /><path
      fill="#A855F7"
      d="M358.976 157.646c-6.03 0-9.652-1.065-10.455-2.012-.812-.953 1.558-2.25 1.558-2.25s-3.53.78-2.212 2.805c1.335 2.012 5.957 3.352 11.136 3.352h.999c5.182 0 9.803-1.34 11.128-3.352 1.325-2.026-2.212-2.805-2.212-2.805s2.371 1.297 1.578 2.25c-.823.947-4.445 2.012-10.465 2.012h-1.055"
    /><path
      fill="#581C87"
      d="M287.915 162.144c8.235-35.03 8.364-70.999 6.769-88.114-1.596-17.121-4.985-28.277-22.89-43.406 0 0 5.573-4.252 29.863-4.252 24.281 0 29.863 4.252 29.863 4.252-17.915 15.13-21.312 26.285-22.898 43.406-1.588 17.115-1.457 53.084 6.776 88.114"
    /><path
      fill="#A855F7"
      d="M295.169 44.432c-3.837-11.678-8.486-21.994-14.266-31.516l1.215-11.898-1.95-.201-1.104 10.843-5.59-2.725-4.995-7.847-1.652 1.05 5.284 8.318 7.095 3.445c5.704 9.4 10.306 19.59 14.096 31.142 4.929 15.04 3.678 40.53 3.659 40.787l1.96.107c.057-1.065 1.28-26.112-3.752-41.505"
    /><path
      fill="#A855F7"
      d="M297.951 15.88L301.293.59l-1.905-.43-3.155 14.41-4.388-1.62L289.483.537l-1.922.37 2.567 13.503 5.974 2.189c.458 2.371.924 5.242 1.364 8.364l-13.164-7.487-.97 1.704 14.45 8.22c1.01 7.809 1.774 16.738 1.774 23.506v60.324h1.96V50.906c0-10.54-1.848-26.315-3.565-35.026"
    /><path
      fill="#A855F7"
      d="M316.49 15.815l3.596-14.764-1.905-.458-2.857 11.721L308.911 0l-1.746.906 7.113 13.62-8.643 2.978-1.916-2.394L306.287.5l-1.932-.34-2.286 12.924-3.045-3.766-1.512 1.226 6.778 8.397c-1.3 9.952-1.148 19.895-1.074 25.874.008 1.12.028 2.082.028 2.847h1.951c0-.775-.01-1.736-.018-2.876-.094-5.88-.216-15.655 1.034-25.405l10.279-3.566m-28.919 27.334c-.048-.098-4.762-10.195-19.177-24.655l-9.613-3.925-4.753-11.283 1.802-.76 4.434 10.535 9.372 3.902c14.826 14.834 19.53 24.95 19.717 25.373l-1.782.813"
    /><path
      fill="#A855F7"
      d="M327.339.612c-2.69 3.827-7.581 13.27-10.494 18.922l-.457.859c-.476.953-.953 1.887-1.4 2.824l-3.221-6.585-1.764.858 3.902 7.991c-3.184 6.876-5.359 13.13-6.479 16.575l-2.987-8.21-4.78-5.116-1.427 1.349 4.442 4.63 3.78 10.432.076 13.862 1.95-.003-.065-13.522.029-.085c.037-.112 3.37-11.911 9.69-24.098l.438-.864c2.913-5.601 7.777-14.974 10.372-18.695L327.339.612"
    /><path
      fill="#A855F7"
      d="M362 4.183l-5.255 1.885V3.964l-1.952-.01-.018 2.82-1.234.438.01.032c-.475.182-1.454.743-3.585 2.288l2.886-5.728-1.745-.886-4.668 9.232c-2.352 1.797-5.46 4.23-9.617 7.534-9.511 7.575-17.1 17.04-22.19 24.356 3.503-6.75 8.841-15.479 16.497-24.132 8.99-10.167 16.701-16.267 16.785-16.323l-1.215-1.545c-.056.037-4.163 3.29-9.856 8.963l.427-9.332-1.95-.084-.533 11.479h.01a151.258 151.258 0 00-5.134 5.54c-.709.802-1.391 1.605-2.064 2.403l-.074-3.35-2.222-2.33 9.224-8.78-1.354-1.415-8.16 7.772.29-5.344-1.96-.103-.448 8.178 2.698 2.82.093 4.896c-13.209 16.645-18.259 32.263-18.316 32.44-2.4 6.488-3.827 22.217-3.827 42.097 0 15.93.309 26.19 2.054 41.342l1.95-.225c-1.746-15.053-2.045-25.26-2.045-41.117 0-19.352 1.42-35.212 3.708-41.415.606-1.154 11.455-21.42 28.827-35.265 13.06-10.385 15.646-11.912 16.076-12.12l8.552-3.072-.664-1.834"
    /><path
      fill="#A855F7"
      d="M314.316 162.546c-8.497-36.16-8.262-72.6-6.787-88.433 1.671-17.97 5.564-29.145 23.236-44.063 13.032-11 27.902-20.322 35.613-24.906l1.01 1.685c-7.656 4.547-22.433 13.812-35.363 24.72-17.242 14.564-20.893 24.953-22.546 42.742-1.465 15.716-1.698 51.899 6.732 87.808l-1.895.447m-25.57 0l-1.905-.447c8.439-35.927 8.217-72.097 6.75-87.808-1.651-17.784-5.303-28.178-22.553-42.743-12.866-10.86-27.642-20.13-35.298-24.682l1.009-1.684c7.71 4.583 22.582 13.914 35.548 24.868 17.663 14.918 21.575 26.093 23.245 44.063 1.484 15.823 1.7 52.259-6.796 88.433"
    /><path
      fill="#A855F7"
      d="M302.059 30.63c10.445 0 24.16 1.549 28.192 4.299 4.033 2.749-1.596 3.958-1.596 3.958s5.842-.976 2.428-4.108c-3.438-3.127-15.238-6.021-29.015-6.021h-.823c-13.768 0-25.578 2.894-28.986 6.02-3.426 3.133 2.41 4.109 2.41 4.109s-5.631-1.21-1.608-3.958c4.036-2.75 17.748-4.3 28.205-4.3h.793m-.682 25.869c-5.33 0-9.868 1.35-11.23 3.09-1.363 1.746.728 2.46.728 2.46s-.327-.29-.645-.668c-.251-.304-.224-.854.617-1.367 1.96-1.19 5.246-1.788 10.53-1.788h.43c5.283 0 8.56.598 10.539 1.788.84.513.859 1.063.617 1.367-.328.379-.645.668-.645.668s2.063-.714.719-2.46c-1.353-1.74-5.9-3.09-11.23-3.09h-.43m.466 88.732c5.536 0 10.243-1.358 11.66-3.09 1.391-1.732-.747-2.446-.747-2.446s.336.285.665.672c.251.294.23.845-.645 1.358-2.035 1.196-5.452 1.765-10.932 1.765h-.45c-5.478 0-8.886-.57-10.93-1.765-.868-.513-.896-1.064-.636-1.358.32-.387.665-.672.665-.672s-2.158.714-.747 2.446c1.408 1.732 6.122 3.09 11.649 3.09h.449"
    /><path
      fill="#A855F7"
      d="M302.011 151.499c2.597 0 9.018-.626 12.118-3.002 3.109-2.347-.504-3.543-.504-3.543s1.52 1.196.793 2.012c-.625.714-5.264 2.534-12.38 2.534h-.746c-7.104 0-11.743-1.82-12.368-2.534-.729-.816.803-2.012.803-2.012s-3.622 1.196-.523 3.543c3.107 2.376 9.54 3.002 12.127 3.002h.68"
    /><path
      fill="#A855F7"
      d="M301.023 156.218c-7.767 0-12.454-1.387-13.5-2.61-1.046-1.228 2.015-2.904 2.015-2.904s-4.564 1.023-2.845 3.636c1.707 2.596 7.673 4.318 14.366 4.318h1.299c6.674 0 12.649-1.722 14.366-4.318 1.718-2.613-2.846-3.636-2.846-3.636s3.06 1.676 2.014 2.904c-1.063 1.223-5.73 2.61-13.507 2.61h-1.362"
    /><g transform="translate(.35 55.998)"><mask id="b" fill="#fff"><use
          xlink:href="#a"
        /></mask><path
        fill="#581C87"
        d="M119.698 0C36.324 0 0 131.674 0 131.674h241.439C236.912 119.7 191.926 0 119.698 0"
        mask="url(#b)"
      /></g><g transform="translate(0 179.088)"><mask id="d" fill="#fff"><use
          xlink:href="#c"
        /></mask><path
        fill="#A855F7"
        d="M3.021 0c-.486 1.43-1.736 5.872.793 8.566h-.727s-4.5-3.049-2.634-6.494C1.126.832 3.021 0 3.021 0"
        mask="url(#d)"
      /></g><g transform="translate(3.244 164.637)"><mask id="f" fill="#fff"><use
          xlink:href="#e"
        /></mask><path
        fill="#A855F7"
        d="M4.986 0s-1.97 2.633-.738 8.15c1.243 5.522 1.914 8.56 4.865 14.862H7.87s-3.705-7.362-5.31-10.68C.86 8.822-1.623 2.894 1.476 1.08 3.044.163 4.986 0 4.986 0"
        mask="url(#f)"
      /></g><g transform="translate(7.119 150.57)"><mask id="h" fill="#fff"><use
          xlink:href="#g"
        /></mask><path
        fill="#A855F7"
        d="M6.74.502s-1.55 1.185-1.195 5.63c.356 4.438 1.084 9.077 4.342 17.695 3.247 8.611 5.154 13.256 5.154 13.256h-1.289s-4.957-9.956-7.59-15.53C3.539 15.98-2.22 4.97.908 1.687 1.933.605 3.537-.375 6.889.143l-.15.36"
        mask="url(#h)"
      /></g><g transform="translate(12.287 136.69)"><mask id="j" fill="#fff"><use
          xlink:href="#i"
        /></mask><path
        fill="#A855F7"
        d="M7.966.988s-1.95 1.586-1.642 5.06c.308 3.444.905 11.77 7.328 28.486 3.987 10.385 6.423 16.449 6.423 16.449H18.73s-8.038-16.86-11.268-24.085C4.224 19.682-3.207 4.4 1.544.833 2.918-.203 5.746-.203 8.22.451l-.253.537"
        mask="url(#j)"
      /></g><g transform="translate(18.14 123.233)"><mask id="l" fill="#fff"><use
          xlink:href="#k"
        /></mask><path
        fill="#A855F7"
        d="M8.593 2.182s-2.165.93-1.56 6.735c.636 5.812 1.97 14.452 5.34 24.356C15.744 43.17 23.175 64.44 23.175 64.44h-1.14S16.565 51.02 8.22 31.108C-.145 11.185-4.02-.824 5.838.044 7.007.147 8.761 1.351 8.965 1.49l-.372.692"
        mask="url(#l)"
      /></g><g transform="translate(25.451 110.066)"><mask id="n" fill="#fff"><use
          xlink:href="#m"
        /></mask><path
        fill="#A855F7"
        d="M9.114 2.55s-2.839.91-1.97 7.315c.878 6.395 3.557 20.168 6.648 31.208 3.108 11.039 11.19 36.491 11.19 36.491h-1.006S14.52 52.318 6.678 31.271C-1.163 10.215-2.135-.395 3.952.01c1.56.1 3.277.72 5.385 2.157l-.223.383"
        mask="url(#n)"
      /></g><g transform="translate(33.434 97.096)"><mask id="p" fill="#fff"><use
          xlink:href="#o"
        /></mask><path
        fill="#A855F7"
        d="M9.319 3.866s-1.3-.248-1.27 2.954c.037 3.198 1.176 17.299 4.471 30.718 3.306 13.41 13.929 52.996 13.929 52.996h-.926S12.38 52.801 8.253 39.806C4.128 26.802-5.721-1.31 4.473.047 5.51.183 7.882 1.42 9.804 3.212l-.484.654"
        mask="url(#p)"
      /></g><g transform="translate(43.025 85.008)"><mask id="r" fill="#fff"><use
          xlink:href="#q"
        /></mask><path
        fill="#A855F7"
        d="M9.502 4.22s-3.987-.59-3.473 7.29c.288 4.471 4.05 23.286 10.315 51.166 5.507 24.481 9.354 39.913 9.354 39.913h-1.054s-11.81-40.93-17.177-60.226C2.108 23.076-4.95-3.59 5.029.401c1.718.69 3.557 2.287 4.772 3.42l-.299.398"
        mask="url(#r)"
      /></g><g transform="translate(54.279 73.6)"><mask id="t" fill="#fff"><use
          xlink:href="#s"
        /></mask><path
        fill="#A855F7"
        d="M8.162 3.869S3.615-.626 2.077.074C.525.77-1.034 5.311.899 18.17c1.923 12.87 9.765 45.234 13.584 61.02 3.818 15.782 7.98 34.881 7.98 34.881h.681s-8.626-43.19-11.79-60.054C6.333 27.257 3.103 9.027 4.38 3.762c.29-1.228 1.364-.827 3.782.107"
        mask="url(#t)"
      /></g><g transform="translate(66.937 64.016)"><mask id="v" fill="#fff"><use
          xlink:href="#u"
        /></mask><path
        fill="#A855F7"
        d="M6.807 3.204S4.073-.68 2.477.104C-1.426 2.02-.071 16.605 2.14 33.8c6.768 52.455 16.99 90.16 16.99 90.16h.234s-6.507-41.583-7.945-50.453C9.982 64.625 2.028 19.742 3.363 4.478c.13-1.466.26-3.258 1.941-2.222.916.564 1.503.948 1.503.948"
        mask="url(#v)"
      /></g><g transform="translate(79.497 55.957)"><mask id="x" fill="#fff"><use
          xlink:href="#w"
        /></mask><path
        fill="#A855F7"
        d="M5.777 2.622c-.783-1.082-1.99-2.787-2.8-2.61C1.837.262-.561 2.254.119 15.515c.32 6.29 2.093 25.103 4.938 45.22 6.965 49.306 12.596 71.088 12.596 71.088S4.928 40.15 4.098 29.438C3.248 18.72 1.52 1.633 3.557 1.148c.558-.131 1.25.358 1.689.886.44.547.55.625.53.588"
        mask="url(#x)"
      /></g><path
      fill="#A855F7"
      d="M99.483 52.637c-.55-1.564-2.998-3.393-4.052-.032-1.148 3.63-.7 14.39-.337 19.38 6.284 87.728 8.497 83.938 12.249 107.636 0 0-6.218-60.858-7.17-72.283-.924-11.423-3.407-43.835-3.023-52.33.065-1.52.224-3.706.858-3.612.635.103.96.639 1.475 1.241m43.689 2.717s3.276-4.084 3.901-.669c.616 3.413.803 7.842.505 12.744-3.314 60.188-7.02 79.696-12.65 112.317 0 0 6.414-59.774 7.375-71 .98-11.216 3.548-43.05 3.203-51.39-.075-1.499-.17-3.45-1.027-3.024-.495.252-.925.77-1.307 1.022m-27.119-6.363s-.523-.635-.916.846c-.392 1.484-2.567 3.146-2.875 24.696-1.195 70.887 3.166 89.003 3.166 89.003s-.467-76.96-.411-86.399c.074-13.218.269-23.604.606-27.24.048-.457.12-1.041.317-.971l.113.065m11.65-.513s.531-.662.916.5c.4 1.219 2.613 5.942 2.679 22.32.289 73.572-3.586 91.733-3.586 91.733s.877-76.96.86-86.398c0-13.228-.132-23.614-.447-27.24-.04-.458-.123-1.05-.32-.98l-.102.065"
    /><g transform="translate(238.093 180.087)"><mask id="z" fill="#fff"><use
          xlink:href="#y"
        /></mask><path
        fill="#A855F7"
        d="M.793 0C1.29 1.26 2.53 5.162 0 7.538h.72S5.217 4.855 3.36 1.82C2.688.732.793 0 .793 0"
        mask="url(#z)"
      /></g><g transform="translate(229.523 167.825)"><mask id="B" fill="#fff"><use
          xlink:href="#A"
        /></mask><path
        fill="#A855F7"
        d="M4.135 0s1.96 2.264.72 7.006C3.622 11.739 2.95 14.353 0 19.758h1.241s3.708-6.32 5.312-9.172C8.263 7.58 10.735 2.488 7.645.94 6.068.149 4.135 0 4.135 0"
        mask="url(#B)"
      /></g><g transform="translate(219.62 155.026)"><mask id="D" fill="#fff"><use
          xlink:href="#C"
        /></mask><path
        fill="#A855F7"
        d="M8.317.448s1.54 1.036 1.176 4.938c-.355 3.903-1.073 7.982-4.331 15.549C1.922 28.51 0 32.599 0 32.599h1.296s4.96-8.761 7.59-13.658c2.633-4.887 8.374-14.576 5.246-17.457C13.115.532 11.519-.331 8.158.126l.16.322"
        mask="url(#D)"
      /></g><g transform="translate(209.49 142.2)"><mask id="F" fill="#fff"><use
          xlink:href="#E"
        /></mask><path
        fill="#A855F7"
        d="M12.099.883s1.96 1.418 1.642 4.5c-.307 3.09-.895 10.51-7.318 25.424A1369.04 1369.04 0 010 45.472h1.335S9.383 30.44 12.62 23.992C15.843 17.55 23.273 3.93 18.53.742c-1.381-.924-4.21-.924-6.684-.336l.253.477"
        mask="url(#F)"
      /></g><g transform="translate(200.434 129.329)"><mask id="H" fill="#fff"><use
          xlink:href="#G"
        /></mask><path
        fill="#A855F7"
        d="M14.582 1.972s2.175.845 1.55 6.101a93.419 93.419 0 01-5.33 22.054C7.43 39.088 0 58.343 0 58.343h1.13s5.47-12.15 13.834-30.177C23.32 10.132 27.184-.744 17.336.04c-1.167.094-2.923 1.18-3.136 1.306l.382.626"
        mask="url(#H)"
      /></g><g transform="translate(191.322 116.243)"><mask id="J" fill="#fff"><use
          xlink:href="#I"
        /></mask><path
        fill="#A855F7"
        d="M15.853 2.348s2.848.841 1.98 6.73c-.888 5.887-3.567 18.57-6.648 28.73C8.077 47.966 0 71.392 0 71.392h.99s9.467-23.236 17.31-42.616C26.14 9.416 27.1-.359 21.014.01c-1.55.093-3.275.659-5.367 1.993l.205.345"
        mask="url(#J)"
      /></g><g transform="translate(181.828 103.097)"><mask id="L" fill="#fff"><use
          xlink:href="#K"
        /></mask><path
        fill="#A855F7"
        d="M17.131 3.615s1.308-.225 1.27 2.758c-.038 2.992-1.177 16.155-4.472 28.677C10.624 47.58 0 84.538 0 84.538h.917S14.07 49.31 18.197 37.17C22.322 25.034 32.17-1.221 21.967.044c-1.018.131-3.398 1.292-5.322 2.959l.486.612"
        mask="url(#L)"
      /></g><g transform="translate(172.915 90.519)"><mask id="N" fill="#fff"><use
          xlink:href="#M"
        /></mask><path
        fill="#A855F7"
        d="M16.206 3.996s4.732-1.137 4.228 6.316c-.29 4.238-3.93 22.676-10.193 49.09C4.732 82.609 0 97.177 0 97.177h1.073s11.931-38.775 17.298-57.053C23.729 21.86 30.657-3.396 20.677.38c-1.718.644-3.566 2.162-4.79 3.249l.319.368"
        mask="url(#N)"
      /></g><g transform="translate(164.428 77.923)"><mask id="P" fill="#fff"><use
          xlink:href="#O"
        /></mask><path
        fill="#A855F7"
        d="M14.983 3.723S19.521-.594 21.07.07c1.55.682 2.846 5.022.708 17.359-6.067 35.26-9.297 43.577-13.115 58.765C4.836 91.377.68 109.75.68 109.75H0s8.626-41.542 11.8-57.776c5.013-25.742 8.113-44.74 6.975-48.352-.366-1.158-1.375-.784-3.792.102"
        mask="url(#P)"
      /></g><g transform="translate(156.166 67.534)"><mask id="R" fill="#fff"><use
          xlink:href="#Q"
        /></mask><path
        fill="#A855F7"
        d="M12.556 3.106S15.273-.637 16.888.095c1.625.734 2.567 6.228.755 22.993-2.164 20.016-6.75 45.608-9.016 57.133C6.357 91.749.233 120.44.233 120.44H0s6.489-40.407 7.944-49.028c1.447-8.622 9.392-52.236 8.057-67.074-.13-1.428-.261-3.165-1.951-2.152-.906.546-1.494.919-1.494.919"
        mask="url(#R)"
      /></g><g transform="translate(146.346 58.828)"><mask id="T" fill="#fff"><use
          xlink:href="#S"
        /></mask><path
        fill="#A855F7"
        d="M10.876 2.557c.783-1.055 1.97-2.72 2.8-2.544 1.13.233 2.69 2.058 2.474 8.206-.215 6.157-1.11 23.637-4.201 43.354-3.1 19.72-3.416 25.26-6.274 40.304C2.512 108.453 0 128.845 0 128.845s.598-13.751 4.154-39.409c3.576-25.65 7.553-50.163 8.393-60.642.84-10.478 2.585-27.198.56-27.675-.58-.126-1.14.312-1.578.832-.449.517-.673.64-.653.606"
        mask="url(#T)"
      /></g><g transform="translate(191.65 92.364)"><mask id="V" fill="#fff"><use
          xlink:href="#U"
        /></mask><path
        fill="#581C87"
        d="M194.669 94.38H51.614c-1.811 0-51.512-.13-51.614-.527 0 0 13.722-10.992 26.801-20.104C67.305 45.557 146.124 1.083 231.301.042c142.399-1.745 201.946 51.12 244.048 94.31l-280.68.028"
        mask="url(#V)"
      /></g><g transform="translate(204.55 164.372)"><mask id="X" fill="#fff"><use
          xlink:href="#W"
        /></mask><path
        fill="#A855F7"
        d="M15.77.308S7.805-.29 3.27.18c-4.556.48-4.1 6.3-.187 13.36 3.92 7.051 10.362 17.53 13.572 21.932 0 0-3.333-5.536-6.776-12.383C7.5 18.366 4.482 12.578 4.82 9.367c.812-7.874 7.823-6.792 7.823-6.792L15.77.308"
        mask="url(#X)"
      /></g><g transform="translate(217.17 156.093)"><mask id="Z" fill="#fff"><use
          xlink:href="#Y"
        /></mask><path
        fill="#A855F7"
        d="M11.793 2.864s-7.32-.27-5.834 7.594c1.475 7.87 2.66 11.455 16.43 33.295 0 0-19.986-27.287-22.217-37.459C-1.883-3.078 15.182.792 15.182.792l-3.39 2.072"
        mask="url(#Z)"
      /></g><g transform="translate(232.984 146.241)"><mask id="ab" fill="#fff"><use
          xlink:href="#aa"
        /></mask><path
        fill="#A855F7"
        d="M13.502 2.499S3.074 2.6 7.452 15.642C11.85 28.67 27.514 52.984 27.514 52.984S7.201 25.51 1.18 10.41C-4.721-4.353 13.287.828 16.255 1.098l-2.753 1.4"
        mask="url(#ab)"
      /></g><g transform="translate(247.424 136.804)"><mask id="ad" fill="#fff"><use
          xlink:href="#ac"
        /></mask><path
        fill="#A855F7"
        d="M14.185 3.063s-9.047-.8-7.29 8.158c1.763 8.957 9.186 24.454 24.187 50.593 0 0-21.08-32.88-28.1-47.158C-4.037.378 1.704-2.585 16.35 1.984l-2.165 1.079"
        mask="url(#ad)"
      /></g><g transform="translate(262.53 127.71)"><mask id="af" fill="#fff"><use
          xlink:href="#ae"
        /></mask><path
        fill="#A855F7"
        d="M16.022 2.895S-8.288-8.947 2.98 15.27c11.902 25.648 29.657 55.376 29.657 55.376C17.105 39.182 9.095 22.658 6.846 12.58c-2.25-10.09 7.067-8.83 7.067-8.83l2.109-.855"
        mask="url(#af)"
      /></g><g transform="translate(278.558 119.669)"><mask id="ah" fill="#fff"><use
          xlink:href="#ag"
        /></mask><path
        fill="#A855F7"
        d="M13.139 4.63s-8.43-2.996-6.349 8.417c2.101 11.412 15.05 41.967 26.392 65.37 0 0-17.831-33.854-26.467-52.945C-1.938 6.386-5.149-6.865 15.305 3.796l-2.166.835"
        mask="url(#ah)"
      /></g><g transform="translate(295.449 112.198)"><mask id="aj" fill="#fff"><use
          xlink:href="#ai"
        /></mask><path
        fill="#A855F7"
        d="M10.801 5.615S3.371.784 7.067 16.317c3.688 15.539 17.457 52.768 25.168 69.707 0 0-20.667-45.127-26.783-61.935C-.672 7.29-5.452-8.187 13.192 4.886l-2.39.729"
        mask="url(#aj)"
      /></g><g transform="translate(313.272 105.366)"><mask id="al" fill="#fff"><use
          xlink:href="#ak"
        /></mask><path
        fill="#A855F7"
        d="M9.278 6.178S4.32 1.715 5.336 11.979c1.01 10.26 9.804 39.418 24.386 81.011 0 0-15.124-38.153-24.141-65.15C-3.41.838-1.404-6.56 10.63 5.814l-1.353.365"
        mask="url(#al)"
      /></g><g transform="translate(330.565 99.528)"><mask id="an" fill="#fff"><use
          xlink:href="#am"
        /></mask><path
        fill="#A855F7"
        d="M8.292 6.788s-3.788-3.627-3.37 3.318c.393 6.936 4.856 27.758 22.144 88.731 0 0-12.163-39.656-21.89-71.045C-4.498-3.458.955-4.892 8.76 6.592l-.468.196"
        mask="url(#an)"
      /></g><g transform="translate(349.133 94.678)"><mask id="ap" fill="#fff"><use
          xlink:href="#ao"
        /></mask><path
        fill="#A855F7"
        d="M6.119 6.997S3.495 3.366 3.764 9.906c.273 6.539 6.583 38.457 19.185 93.689 0 0-16.16-62.31-20.35-82.468C-1.584.962-.93-6.889 6.12 6.997"
        mask="url(#ap)"
      /></g><g transform="translate(367.291 90.648)"><mask id="ar" fill="#fff"><use
          xlink:href="#aq"
        /></mask><path
        fill="#A855F7"
        d="M4.204 6.523C-.352-3.573-1.416-4.357 2.057 21.73c4.161 31.363 16.737 85.978 16.737 85.978C5.424 32.629 3.364 9.039 3.336 7.499c-.029-1.172.531-.855.84-.634l.111.12.103-.037-.186-.425"
        mask="url(#ar)"
      /></g><g transform="translate(384.438 87.23)"><mask id="at" fill="#fff"><use
          xlink:href="#as"
        /></mask><path
        fill="#A855F7"
        d="M4.561 7.79c.205-.042-6.19-17.667-4.164.243C6.651 63.33 8.806 67.9 15.651 111.043c0 0-7.432-66.136-9.757-81.427C4.084 17.568 3.252 7.71 3.252 7.71v.038s-.074-.524.309-.673c.364-.153.823.752 1 .715"
        mask="url(#at)"
      /></g><g transform="translate(402.92 85.113)"><mask id="av" fill="#fff"><use
          xlink:href="#au"
        /></mask><path
        fill="#A855F7"
        d="M.005 8.175c-.158.01 3.324-18.348 4.828-.075.428 4.896 5.667 77.152 5.713 105.143 0 0-7.712-93.936-9.047-104.555l-.103-.64s-.158-.6-.652-.658c-.29-.037-.42.761-.739.785"
        mask="url(#av)"
      /></g><g transform="translate(420.887 83.933)"><mask id="ax" fill="#fff"><use
          xlink:href="#aw"
        /></mask><path
        fill="#A855F7"
        d="M.542 8.38s1.4-4.865 2.213 12.084c.811 16.943 3.78 93.824 3.78 93.824s1.185-41.047-.887-94.142C4.883.673 3.436-7.472 0 8.392l.542-.013"
        mask="url(#ax)"
      /></g><g transform="translate(437.326 84.31)"><mask id="az" fill="#fff"><use
          xlink:href="#ay"
        /></mask><path
        fill="#A855F7"
        d="M0 8.02s7.273-21.92 7.29 6.717c.085 50.084-3.77 99.225-3.77 99.225s1.082-57.81 1.082-84.643C4.602 2.49 1.896 6.994.366 8.067L0 8.02"
        mask="url(#az)"
      /></g><g transform="translate(453.449 85.006)"><mask id="aB" fill="#fff"><use
          xlink:href="#aA"
        /></mask><path
        fill="#A855F7"
        d="M0 7.876s1.69-2.493 4.734-6.198c3.042-3.707 6.823-3.96 4.536 28.426C6.61 67.534 3.015 96.79.55 113.35c0 0 3.203-36.005 4.985-70.495 1.811-34.48-.4-37.943-4.452-34.904L0 7.876"
        mask="url(#aB)"
      /></g><g transform="translate(467.414 86.302)"><mask id="aD" fill="#fff"><use
          xlink:href="#aC"
        /></mask><path
        fill="#A855F7"
        d="M2.642 7.657S4.724 5.3 7.702 2.336c2.969-2.964 8.85-8.63 5.441 24.324C8.552 71.138 0 112.148 0 112.148S7.375 55.93 9.363 30.609c1.98-25.327-1.735-25.038-4.64-22.881l-2.081-.07"
        mask="url(#aD)"
      /></g><g transform="translate(480.69 88.754)"><mask id="aF" fill="#fff"><use
          xlink:href="#aE"
        /></mask><path
        fill="#A855F7"
        d="M6.086 6.97s2.903-2.487 5.74-4.779c2.84-2.283 10.952-7.781 7.095 16.393C11.061 67.855 4.21 94.848 0 109.518c0 0 11.173-57.043 13.161-76.759 1.971-19.73 2.101-28.136-4.984-25.583l-2.09-.205"
        mask="url(#aF)"
      /></g><g transform="translate(494.337 91.949)"><mask id="aH" fill="#fff"><use
          xlink:href="#aG"
        /></mask><path
        fill="#A855F7"
        d="M8.813 5.993s3.118-2.558 6.842-4.384C19.37-.206 28.81-5.532 22.601 22.786 16.393 51.115 5.947 87.803 0 106.324c0 0 11.539-45.328 15.674-71.57C19.82 8.49 16.973 4.966 11.894 6.445l-3.081-.452"
        mask="url(#aH)"
      /></g><g transform="translate(507.808 95.951)"><mask id="aJ" fill="#fff"><use
          xlink:href="#aI"
        /></mask><path
        fill="#A855F7"
        d="M15.916 5.972s3.846-.994 5.022 3.921c1.167 4.9 2.558 18.232-20.938 92.241 0 0 12.779-34.03 23.236-70.052C33.364-2.86 28.51-4.587 11.397 5.034l4.52.938"
        mask="url(#aJ)"
      /></g><g transform="translate(521.623 100.307)"><mask id="aL" fill="#fff"><use
          xlink:href="#aK"
        /></mask><path
        fill="#A855F7"
        d="M13.919 4.771s6.274-3.22 9.457-4.038C28.716-.61 36.764-3.22 27.83 25.724 23.777 38.874 6.76 81.573 0 98.05c0 0 14.545-40.216 21.07-65.64 6.61-25.663.066-25.706-1.568-26.242L13.92 4.77"
        mask="url(#aL)"
      /></g><g transform="translate(535.823 106.014)"><mask id="aN" fill="#fff"><use
          xlink:href="#aM"
        /></mask><path
        fill="#A855F7"
        d="M19.455 5.198s8.27-.644 6.179 12.387C23.544 30.622 14.85 59.029 0 92.258c0 0 18.82-38.405 28.94-65.557C39.067-.446 35.1-4.296 14.553 3.671l4.9 1.527"
        mask="url(#aN)"
      /></g><g transform="translate(550.359 112.564)"><mask id="aP" fill="#fff"><use
          xlink:href="#aO"
        /></mask><path
        fill="#A855F7"
        d="M19.184 4.282s11.737-.336 6.342 17.363C20.128 39.33 10.81 63.91 0 85.52c0 0 21.61-39.245 30.613-62.312C39.628.169 36.068-3.752 15.598 2.937l3.586 1.345"
        mask="url(#aP)"
      /></g><g transform="translate(564.735 119.706)"><mask id="aR" fill="#fff"><use
          xlink:href="#aQ"
        /></mask><path
        fill="#A855F7"
        d="M20.726 4.3s7.634-.29 6.014 10.875C25.12 26.335 22.68 34.079 0 78.38c0 0 24.121-38.896 32.04-58.71C39.974-.135 34.937-2.833 15.843 2.21l4.884 2.09"
        mask="url(#aR)"
      /></g><g transform="translate(579.993 127.42)"><mask id="aT" fill="#fff"><use
          xlink:href="#aS"
        /></mask><path
        fill="#A855F7"
        d="M20.166 4.554s7.026.742 6.217 7.57C25.56 18.944 22.513 34.828 0 70.853c0 0 16.568-22.512 29.718-49.164C42.868-4.96 25.477-.46 14.305 1.697l5.86 2.857"
        mask="url(#aT)"
      /></g><g transform="translate(595.978 136.08)"><mask id="aV" fill="#fff"><use
          xlink:href="#aU"
        /></mask><path
        fill="#A855F7"
        d="M17.378 4.108s10.362 1.535 4.872 15.67C16.758 33.916 9.73 45.982 0 62.005c0 0 19.63-26.83 27.92-44.3C36.197.243 29.633-1.465 11.53.785l5.848 3.323"
        mask="url(#aV)"
      /></g><g transform="translate(611.783 145.56)"><mask id="aX" fill="#fff"><use
          xlink:href="#aW"
        /></mask><path
        fill="#A855F7"
        d="M13.554 3.319s10.397 2.11 6.075 13.821C15.316 28.842 12.243 35.6 0 52.712c0 0 16.032-19.095 23.595-34.764C31.146 2.302 28.288-1.488 9.075.476l4.48 2.843"
        mask="url(#aX)"
      /></g><g transform="translate(628.863 154.971)"><mask id="aZ" fill="#fff"><use
          xlink:href="#aY"
        /></mask><path
        fill="#A855F7"
        d="M8.052 3.365S19.08 6.474 14.59 17.364C10.076 28.257 4.586 37.172 0 43.3c0 0 9.54-11.253 18.533-28.187C27.097-1.004 13.316-.64 3.859.442l4.193 2.923"
        mask="url(#aZ)"
      /></g><g transform="translate(644.978 165.368)"><mask id="bb" fill="#fff"><use
          xlink:href="#ba"
        /></mask><path
        fill="#A855F7"
        d="M4.764 3.124s9.826 3.128.88 19.815C1.083 31.467.428 32.853.428 32.853S8.456 22.59 14.28 9.631C20.07-3.339 4.68.436 0 .745l4.764 2.38"
        mask="url(#bb)"
      /></g></g>
</svg>
